# xmcd
#
# Track frame offsets:
#	150
#	21937
#	43080
#	64650
#	85275
#	107620
#	128060
#	149207
#	172705
#	191822
#
# Disc length: 2840 seconds
#
# Revision: 2
# Processed by: cddbd v1.5.2PL0 Copyright (c) Steve Scherf et al.
# Submitted via: EasyCDDAExtractor 15.3.0.1
#
DISCID=8b0b160a
DTITLE=Zafra Negra - Zafra
DYEAR=1994
DGENRE=Latin
TTITLE0=Andar De Fiesta
TTITLE1=Por Retenerte
TTITLE2=Llorare
TTITLE3=Ajena
TTITLE4=Como Me Duele El Amor
TTITLE5=La Negra Rosa
TTITLE6=Lo Que No Conviene
TTITLE7=Camaron Que Se Duerme
TTITLE8=Basta Ya
TTITLE9=El Hombre Llora
EXTD=Genre: Merengue\nMy name: Juan Omar Limón PeláezGENRE: Merengue
EXTT0=
EXTT1=
EXTT2=
EXTT3=
EXTT4=
EXTT5=
EXTT6=
EXTT7=
EXTT8=
EXTT9=
PLAYORDER=
